<?xml version="1.0" encoding="UTF-8"?>
<svg width="17px" height="16px" viewBox="0 0 17 16" version="1.1" xmlns="http://www.w3.org/2000/svg" xmlns:xlink="http://www.w3.org/1999/xlink">
    <!-- Generator: Sketch 55.2 (78181) - https://sketchapp.com -->
    <title>LinkedIn</title>
    <desc>Created with Sketch.</desc>
    <g id="Design" stroke="none" stroke-width="1" fill="none" fill-rule="evenodd">
        <g id="Werk-1" transform="translate(-32.000000, -437.000000)" fill="#FFFFFF" fill-rule="nonzero">
            <g id="Group-11" transform="translate(31.000000, 395.000000)">
                <g id="Group-10">
                    <path d="M18,51.9375607 L18,57.8571429 L14.5278155,57.8571429 L14.5278155,52.3340186 C14.5278155,50.9465648 14.0256014,49.9996818 12.7687857,49.9996818 C11.8093663,49.9996818 11.2384151,50.6378116 10.9872328,51.2550947 C10.8956335,51.475771 10.8720557,51.7829235 10.8720557,52.0918257 L10.8720557,57.8571429 L7.39870361,57.8571429 C7.39870361,57.8571429 7.44548251,48.5027833 7.39870361,47.5336019 L10.8717168,47.5336019 L10.8717168,48.9969225 C10.8646736,49.0078669 10.8555212,49.0196676 10.8488923,49.0302771 L10.8717168,49.0302771 L10.8717168,48.9969225 C11.3331405,48.2945033 12.1571949,47.2910738 14.0016847,47.2910738 C16.2868829,47.2910738 18,48.7665674 18,51.9375607 Z M3.76542941,42.5571429 C2.57720016,42.5571429 1.8,43.3274625 1.8,44.340459 C1.8,45.3313805 2.55471465,46.125078 3.71932846,46.125078 L3.74252959,46.125078 C4.95377165,46.125078 5.70705506,45.3315294 5.70705506,44.340459 C5.68423057,43.3274625 4.95377165,42.5571429 3.76542941,42.5571429 Z M2.00628666,57.8571429 L5.47832055,57.8571429 L5.47832055,47.5336019 L2.00628666,47.5336019 L2.00628666,57.8571429 Z" id="LinkedIn"></path>
                </g>
            </g>
        </g>
    </g>
</svg>