<?xml version="1.0" encoding="UTF-8"?>
<svg width="18px" height="18px" viewBox="0 0 18 18" version="1.1" xmlns="http://www.w3.org/2000/svg" xmlns:xlink="http://www.w3.org/1999/xlink">
    <!-- Generator: Sketch 55.2 (78181) - https://sketchapp.com -->
    <title>Combined Shape</title>
    <desc>Created with Sketch.</desc>
    <g id="Design" stroke="none" stroke-width="1" fill="none" fill-rule="evenodd">
        <g id="Werk-1" transform="translate(-31.000000, -395.000000)" fill="#FFFFFF" fill-rule="nonzero">
            <g id="Group-11" transform="translate(31.000000, 395.000000)">
                <g id="Group-10">
                    <path d="M17.9457111,12.7105389 C17.9021843,13.6686065 17.7498405,14.3227041 17.5274235,14.8952487 C17.0598692,16.1041932 16.1041932,17.0598692 14.8952487,17.5274235 C14.3229432,17.7498405 13.6686065,17.9019452 12.7107781,17.9457111 C11.7510364,17.989477 11.4444356,18 9.00023914,18 C6.55580357,18 6.24944198,17.989477 5.28946108,17.9457111 C4.33163265,17.9019452 3.67729592,17.7498405 3.10499045,17.5274235 C2.50422514,17.301419 1.96037945,16.9472258 1.5107621,16.4892379 C1.05301341,16.0398597 0.698820122,15.4957749 0.472815673,14.8952487 C0.250398612,14.3229432 0.0980548163,13.6686065 0.0545280612,12.7107781 C0.0102838163,11.7507972 0,11.4441964 0,9 C0,6.55580357 0.0102838163,6.24920278 0.0542889184,5.28946108 C0.0978156735,4.33139351 0.249920265,3.67729592 0.472337388,3.10475131 C0.698341837,2.50422514 1.0527742,1.96014031 1.5107621,1.5107621 C1.96014031,1.0527742 2.50422514,0.69858098 3.10475131,0.472576531 C3.67729592,0.250159469 4.33139351,0.0980548163 5.28946108,0.0542889184 C6.24920278,0.0105229592 6.55580357,0 9,0 C11.4441964,0 11.7507972,0.0105229592 12.7105389,0.0545280612 C13.6686065,0.0980548163 14.3227041,0.250159469 14.8952487,0.472337388 C15.4957749,0.698341837 16.0398597,1.0527742 16.489477,1.5107621 C16.9472258,1.96037945 17.3016582,2.50422514 17.5274235,3.10475131 C17.7500797,3.67729592 17.9021843,4.33139351 17.9459503,5.28946108 C17.9897162,6.24920278 18,6.55580357 18,9 C18,11.4441964 17.9897162,11.7507972 17.9457111,12.7105389 Z M12,9 C12,7.34311224 10.6568878,6 9,6 C7.34311224,6 6,7.34311224 6,9 C6,10.6568878 7.34311224,12 9,12 C10.6568878,12 12,10.6568878 12,9 Z M16.0159439,3.69212376 C15.8717315,3.30133929 15.6416614,2.94762435 15.3427136,2.65728637 C15.0523757,2.35833863 14.6988999,2.12826851 14.3078762,1.98405612 C13.9907526,1.86088965 13.5143495,1.71428571 12.6368782,1.67434629 C11.6876595,1.63105867 11.4030612,1.62173149 9,1.62173149 C6.59669963,1.62173149 6.31210139,1.63081953 5.3631218,1.67410714 C4.48565051,1.71428571 4.00900831,1.86088965 3.69212376,1.98405612 C3.30110014,2.12826851 2.9473852,2.35833863 2.65728637,2.65728637 C2.35833863,2.94762435 2.12826851,3.30110014 1.98381698,3.69212376 C1.86065051,4.00924745 1.71404657,4.48588965 1.67410714,5.36336094 C1.63081953,6.31234053 1.62149235,6.59693878 1.62149235,9.00023914 C1.62149235,11.4033004 1.63081953,11.6878986 1.67410714,12.6371173 C1.71404657,13.5145886 1.86065051,13.9909917 1.98381698,14.3081154 C2.12826851,14.6991391 2.35809949,15.0526148 2.65704722,15.3429528 C2.9473852,15.6419005 3.30086094,15.8719707 3.69188455,16.016183 C4.00900831,16.1395886 4.48565051,16.2861926 5.3631218,16.326132 C6.31210139,16.3694197 6.59646049,16.3785077 8.99976086,16.3785077 C11.4033004,16.3785077 11.6878986,16.3694197 12.6366391,16.326132 C13.5141103,16.2861926 13.9907526,16.1395886 14.3078762,16.016183 C15.0927934,15.7134088 15.7131697,15.0930325 16.0159439,14.3081154 C16.1391103,13.9909917 16.2857143,13.5145886 16.3258929,12.6371173 C16.3691805,11.6878986 16.3782685,11.4033004 16.3782685,9.00023914 C16.3782685,6.59693878 16.3691805,6.31234053 16.3258929,5.36336094 C16.2859534,4.48588965 16.1393495,4.00924745 16.0159439,3.69212376 Z M9,13.6214923 C6.44746494,13.6214923 4.37826851,11.5525351 4.37826851,9 C4.37826851,6.44746494 6.44746494,4.37850765 9,4.37850765 C11.5522959,4.37850765 13.6214923,6.44746494 13.6214923,9 C13.6214923,11.5525351 11.5522959,13.6214923 9,13.6214923 Z M13.8042092,5.27582908 C13.2077487,5.27582908 12.7241709,4.79225131 12.7241709,4.19579082 C12.7241709,3.59933033 13.2077487,3.11575255 13.8042092,3.11575255 C14.4006697,3.11575255 14.8842474,3.59933033 14.8842474,4.19579082 C14.8840083,4.79225131 14.4006697,5.27582908 13.8042092,5.27582908 Z" id="Combined-Shape"></path>
                </g>
            </g>
        </g>
    </g>
</svg>